<?xml version="1.0" encoding="utf-8"?>
<?xml-stylesheet type="text/xsl" href="rss1.xsl"?>
<rss version="2.0" xmlns:atom="http://www.w3.org/2005/Atom" xmlns:content="http://purl.org/rss/1.0/modules/content/" xmlns:dc="http://purl.org/dc/elements/1.1/" xmlns:media="http://search.yahoo.com/mrss/">
<channel>
 <title>Getty</title>
 <link>http://www.gettyimg.com/</link>
 <atom:link href="http://www.gettyimg.com/" rel="self" type="application/rss+xml" />

 
                <item>
                <title><![CDATA[【Requests】[REQ AUD] - Karma Fields - Build the Cities (feat. Kerli) [Reconstructions]]]></title>
                <link><![CDATA[https://sharemania.us/threads/karma-fields-build-the-cities-feat-kerli-reconstructions.223924/]]></link>
                <description><![CDATA[<article>
<blockquote class="messageText SelectQuoteContainer ugc baseHtml">
in HIGH QUALITY please or mp3 320 / m4a <br>
<br>
<a href="https://www.qobuz.com/fr-fr/album/build-the-cities-reconstructions-karma-fields/x2vgkitubxkqb" target="_blank" class="externalLink" rel="nofollow">https://www.qobuz.com/fr-fr/album/build-the-cities-reconstructions-karma-fields/x2vgkitubxkqb</a>
<div class="messageTextEndMarker">&nbsp;</div>
</blockquote>
</article>]]></description>
                <author><![CDATA[ASFDHTHSCS]]></author>
                </item>

                
                <item>
                <title><![CDATA[【Cinema Center】MOVIE - A Gert Lush Christmas (2015) (1080i) (HDTV) (DTS-HD) (MA) (2.0) [MAVERICK]]]></title>
                <link><![CDATA[https://sharemania.us/threads/a-gert-lush-christmas-2015-1080i-hdtv-dts-hd-ma-2-0-maverick.223925/]]></link>
                <description><![CDATA[<article>
<blockquote class="messageText SelectQuoteContainer ugc baseHtml">
<img src="https://ichef.bbci.co.uk/images/ic/1200x675/p03c14n1.jpg" class="bbCodeImage LbImage" alt="[​IMG]" data-url="https://ichef.bbci.co.uk/images/ic/1200x675/p03c14n1.jpg" style=""><b>Plot: </b>Dan Colman has met the woman of his dreams, but introducing Lisa to his loveable but eccentric family at Christmas increasingly looks like a bad idea.<br>
<div class="ToggleTriggerAnchor bbCodeSpoilerContainer">
<button type="button" class="button bbCodeSpoilerButton ToggleTrigger Tooltip JsOnly" data-target="> .SpoilerTarget"><span>Spoiler: <span class="SpoilerTitle">IMDB:</span></span></button>
<div class="SpoilerTarget bbCodeSpoilerText"><a href="https://www.imdb.com/title/tt4982260/" target="_blank" class="externalLink" rel="nofollow">https://www.imdb.com/title/tt4982260/</a></div>
</div>
<div class="ToggleTriggerAnchor bbCodeSpoilerContainer">
<button type="button" class="button bbCodeSpoilerButton ToggleTrigger Tooltip JsOnly" data-target="> .SpoilerTarget"><span>Spoiler: <span class="SpoilerTitle">Media Info:</span></span></button>
<div class="SpoilerTarget bbCodeSpoilerText">General<br>
Complete name : C:\Users\Maverick\Desktop\A Gert Lush Christmas (2015) (1080i) (HDTV) (DTS-HD) (MA) (2.0) [MAVERICK].mkv<br>
Format : Matroska<br>
Format version : Version 4<br>
File size : 2.47 GiB<br>
Duration : 59 min 0 s<br>
Overall bit rate mode : Variable<br>
Overall bit rate : 5 989 kb/s<br>
Movie name : A Gert Lush Christmas (2015) (1080i) (HDTV) (DTS-HD) (MA) (2.0) [MAVERICK]<br>
Encoded date : UTC 2023-07-04 20:39:30<br>
Writing application : mkvmerge v78.0 ('Running') 64-bit<br>
Writing library : libebml v1.4.4 + libmatroska v1.7.1<br>
<br>
Video<br>
ID : 1<br>
Format : AVC<br>
Format/Info : Advanced Video Codec<br>
Format profile : High@L4<br>
Format settings : CABAC / 4 Ref Frames<br>
Format settings, CABAC : Yes<br>
Format settings, Reference fra : 4 frames<br>
Format settings, GOP : M=8, N=24<br>
Codec ID : V_MPEG4/ISO/AVC<br>
Duration : 59 min 0 s<br>
Bit rate : 3787 kb/s<br>
Width : 1920 pixels<br>
Height : 1080 pixels<br>
Display aspect ratio : 16:9<br>
Frame rate mode : Variable<br>
Frame rate : 25.190 FPS<br>
Original frame rate : 25.000 FPS<br>
Standard : Component<br>
Color space : YUV<br>
Chroma subsampling : 4:2:0<br>
Bit depth : 8 bits<br>
Scan type : MBAFF<br>
Scan type, store method : Interleaved fields<br>
Scan order : Top Field First<br>
Bits/(Pixel*Frame) : 0.072<br>
Stream size : 1.56 GiB (63%)<br>
Title : A Gert Lush Christmas (2015) (1080i) (HDTV) (DTS-HD) (MA) (2.0) [MAVERICK]<br>
Language : English<br>
Default : Yes<br>
Forced : Yes<br>
Color range : Limited<br>
Color primaries : BT.709<br>
Transfer characteristics : BT.709<br>
Matrix coefficients : BT.709<br>
<br>
Audio #1<br>
ID : 2<br>
Format : DTS XLL<br>
Format/Info : Digital Theater Systems<br>
Commercial name : DTS-HD Master Audio<br>
Codec ID : A_DTS<br>
Duration : 59 min 0 s<br>
Bit rate mode : Variable<br>
Bit rate : 2 006 kb/s<br>
Channel(s) : 2 channels<br>
Channel layout : L R<br>
Sampling rate : 48.0 kHz<br>
Frame rate : 93.750 FPS (512 SPF)<br>
Bit depth : 24 bits<br>
Compression mode : Lossless<br>
Stream size : 847 MiB (34%)<br>
Title : DTS-HD MA 2.0<br>
Language : English<br>
Default : Yes<br>
Forced : Yes<br>
<br>
Audio #2<br>
ID : 3<br>
Format : AC-3<br>
Format/Info : Audio Coding 3<br>
Commercial name : Dolby Digital<br>
Codec ID : A_AC3<br>
Duration : 59 min 0 s<br>
Bit rate mode : Constant<br>
Bit rate : 192 kb/s<br>
Channel(s) : 2 channels<br>
Channel layout : L R<br>
Sampling rate : 48.0 kHz<br>
Frame rate : 31.250 FPS (1536 SPF)<br>
Compression mode : Lossy<br>
Stream size : 81.0 MiB (3%)<br>
Title : DD2.0<br>
Language : English<br>
Service kind : Complete Main<br>
Default : No<br>
Forced : Yes</div>
</div>
<div class="ToggleTriggerAnchor bbCodeSpoilerContainer">
<button type="button" class="button bbCodeSpoilerButton ToggleTrigger Tooltip JsOnly" data-target="> .SpoilerTarget"><span>Spoiler: <span class="SpoilerTitle">Download:</span></span></button>
<div class="SpoilerTarget bbCodeSpoilerText">
<div class="bbCodeBlock bbCodeVfcHH HiddenContent">
<div class="attribution type">Hidden Content:</div>
<blockquote>You must either reply or click 'Like' to see the hidden information contained here.</blockquote>
</div></div>
</div><div style="text-align: center"><b>Please Note This File Has Been uploaded to Gofile, because its free fast upload and download speeds Grab it while you can, Admin should reupload My files to google drive.<br>
<br>
Please Credit Me Maverick if you are going to upload my files elsewhere!</b><br>
<br>
<b>New Content will only Be Uploaded from this Account <a href="https://sharemania.us/members/176676/" class="username" data-user="176676, @Maverick">@Maverick</a></b><br>
<br>
<b>Enjoy <img src="styles/default/xenforo/smilies/big_smile-48.png" class="mceSmilie" alt=":)" title="Smile    :)"></b>​</div>
<div class="messageTextEndMarker">&nbsp;</div>
</blockquote>
</article>]]></description>
                <author><![CDATA[Maverick]]></author>
                </item>

                </channel></rss>